# xmcd
#
# Track frame offsets:
#	150
#	12078
#	31360
#	41621
#	58283
#	69791
#	85874
#	97011
#	112376
#	123287
#	142331
#	158104
#	170320
#	183922
#	200261
#	212416
#	230263
#	239234
#
# Disc length: 3771 seconds
#
# Revision: 0
# Processed by: cddbd v1.5.2PL0 Copyright (c) Steve Scherf et al.
# Submitted via: audiograbber 1.83.01
#
DISCID=fc0eb912
DTITLE=Roger McGuinn - Treasures From The Folk Den
DYEAR=2001
DGENRE=Folk
TTITLE0=Wagoner's Lad [with Joan Baez and Eliza Carthy]
TTITLE1=Dink's Song [with Pete Seeger and Josh White Jr.]
TTITLE2=Bonnie Ship The Diamond [with Judy Collins]
TTITLE3=Cane Blues
TTITLE4=Reel [with Eliza Carthy]
TTITLE5=Fair Nottamun Town [with Jean Ritchie]
TTITLE6=John The Revelator [with Jean Ritchie and Odetta]
TTITLE7=Alabama Bound [with Pete Seeger]
TTITLE8=Finnegan's Wake [with Tommy Makem]
TTITLE9=In The Evenin' [with Pete Seeger]
TTITLE10=Willie Moore [with Joan Baez and Eliza Carthy]
TTITLE11=The Brazos River [with Frank and Mary Hamilton]
TTITLE12=Sail Away Lady [with Odetta]
TTITLE13=John Riley [with Judy Collins]
TTITLE14=Trouble In Mind [with Josh White Jr.]
TTITLE15=Whiskey In The Jar [with Tommy Makem]
TTITLE16=The Virgin Mary [with Odetta]
TTITLE17=Pete's Song [with Pete Seeger]
EXTD=
EXTT0=
EXTT1=
EXTT2=
EXTT3=
EXTT4=
EXTT5=
EXTT6=
EXTT7=
EXTT8=
EXTT9=
EXTT10=
EXTT11=
EXTT12=
EXTT13=
EXTT14=
EXTT15=
EXTT16=
EXTT17=
PLAYORDER=
